#N canvas 827 239 527 327 12;
#X obj 600 342 adsr~;
#X obj 519 79 r attackTime;
#X obj 598 139 r decayTime;
#X obj 659 199 r sustainLevel;
#X obj 1002 231 vsl 17 128 0 10 0 0 empty empty attack 0 -9 0 10 #e4e4e4 #4d4d4d #4d4d4d 0 1;
#X obj 1062 231 vsl 17 128 0 10 0 0 empty empty decay 0 -9 0 10 #e4e4e4 #4d4d4d #4d4d4d 0 1;
#X obj 1122 231 vsl 17 128 0 10 0 0 empty empty sustain 0 -9 0 10 #e4e4e4 #4d4d4d #4d4d4d 0 1;
#X obj 1182 231 vsl 17 128 0 10 0 0 empty empty release 0 -9 0 10 #e4e4e4 #4d4d4d #4d4d4d 0 1;
#X floatatom 999 371 5 0 0 0 empty - attackTime_\$0 12;
#X floatatom 1059 371 5 0 0 0 empty - decayTime_\$0 12;
#X floatatom 1119 371 5 0 0 0 empty - sustainLevel_\$0 12;
#X floatatom 1179 371 5 0 0 0 empty - releaseTime_\$0 12;
#X obj 759 239 inlet~ release;
#X obj 758 279 +~;
#X obj 668 241 +~;
#X obj 562 409 outlet~ envelope;
#X obj 704 407 outlet envelopeStatus;
#X obj 599 199 +~;
#X obj 519 139 +~;
#X obj 507 179 *~ 1000;
#X obj 599 239 *~ 1000;
#X obj 699 299 *~ 1000;
#X obj 539 99 inlet~ attack_\$0;
#X obj 615 159 inlet~ decay_\$0;
#X obj 679 219 inlet~ sustain_\$0;
#X obj 779 257 r releaseTime_\$0;
#X obj 419 279 inlet gate;
#X connect 0 0 15 0 empty;
#X connect 0 1 16 0 empty;
#X connect 1 0 18 0 empty;
#X connect 2 0 17 0 empty;
#X connect 3 0 14 0 empty;
#X connect 4 0 8 0 empty;
#X connect 5 0 9 0 empty;
#X connect 6 0 10 0 empty;
#X connect 7 0 11 0 empty;
#X connect 12 0 13 0 empty;
#X connect 13 0 21 0 empty;
#X connect 14 0 0 3 empty;
#X connect 17 0 20 0 empty;
#X connect 18 0 19 0 empty;
#X connect 19 0 0 1 empty;
#X connect 20 0 0 1 empty;
#X connect 21 0 0 4 empty;
#X connect 22 0 18 1 empty;
#X connect 23 0 17 1 empty;
#X connect 24 0 14 1 empty;
#X connect 25 0 13 1 empty;
#X connect 26 0 0 0 empty;
#X coords 0 0 1 1 242 200 1 988 197;
