#N canvas 827 239 527 327 12;
#N canvas 0 50 450 250 (subpatch) 0;
#X array note_\$0 16 float 3;
#A 0 6.73571 10.1929 6.42143 10.6643 8.07143 6.97143 7.75714 9.01429 9.09286 9.17143 8.85714 7.99286 7.28571 6.81429 6.89286 7.6;
#X coords 0 12 16 1 200 140 1;
#X restore 759 171 graph;
#N canvas 0 50 450 250 (subpatch) 0;
#X array volume_\$0 16 float 3;
#A 0 0.185714 0.214286 0.267857 0.325 0.360714 0.410714 0.428571 0.428571 0.428571 0.428571 0.403571 0.375 0.335714 0.285714 0.253571 0.228571;
#X coords 0 1 16 0 200 140 1;
#X restore 1199 171 graph;
#X obj 759 79 inlet phasorFreq;
#X obj 219 250 / 127;
#X obj 219 199 phasor;
#X obj 899 79 inlet phaseSync;
#X obj 219 290 * 16;
#X obj 299 250 inlet extPhasor;
#X msg 570 159 0;
#X msg 612 159 1;
#X obj 579 106 sel 0 1;
#X floatatom 572 203 5 0 0 0 empty - - 12;
#X obj 572 259 - 1;
#X obj 566 292 abs;
#X floatatom 566 339 5 0 0 0 empty - - 12;
#X obj 579 59 r phasor_\$0;
#X obj 1199 339 vradio 20 1 0 2 phasor_\$0 empty phasor -7 -8 0 10 #e4e4e4 #4d4d4d #4d4d4d 0;
#X text 1219 338 internal;
#X text 1219 358 external;
#X obj 299 399 *;
#X obj 219 399 *;
#X obj 359 563 tabread volume_\$0;
#X obj 214 563 tabread note_\$0;
#X obj 216 719 pack;
#N canvas 0 50 450 250 (subpatch) 0;
#X array octave_\$0 16 float 3;
#A 0 4.7 4.725 5.025 5.55 5.925 6.175 6.425 6.65 6.9 7.225 7.475 7.65 7.65 7.425 3.3 3.35;
#X coords 0 8 16 1 200 140 1;
#X restore 979 171 graph;
#X obj 79 563 tabread octave_\$0;
#X obj 139 599 *;
#X obj 141 639 rint;
#X obj 139 679 midi2freq;
#X obj 762 338 hsl 128 17 0.1 2 0 0 empty empty tempo -2 -8 0 10 #e4e4e4 #4d4d4d #4d4d4d 0 1;
#X obj 1159 59 inlet phasorOption;
#X obj 214 99 r phasorStuff_\$0;
#X obj 218 139 unpack;
#X obj 841 458 pack;
#X obj 839 539 s phasorStuff_\$0;
#X text 259 720 Contains a frequency and amplitude message.;
#X obj 216 776 outlet freqAndAmp;
#X obj 599 776 outlet phasor;
#X connect 2 0 29 0 empty;
#X connect 3 0 6 0 empty;
#X connect 4 0 3 0 empty;
#X connect 5 0 33 1 empty;
#X connect 6 0 20 0 empty;
#X connect 6 0 37 0 empty;
#X connect 7 0 19 0 empty;
#X connect 8 0 11 0 empty;
#X connect 9 0 11 0 empty;
#X connect 10 0 8 0 empty;
#X connect 10 1 9 0 empty;
#X connect 11 0 12 0 empty;
#X connect 11 0 19 1 empty;
#X connect 12 0 13 0 empty;
#X connect 13 0 14 0 empty;
#X connect 14 0 20 1 empty;
#X connect 15 0 10 0 empty;
#X connect 19 0 22 0 empty;
#X connect 19 0 21 0 empty;
#X connect 19 0 25 0 empty;
#X connect 20 0 22 0 empty;
#X connect 20 0 21 0 empty;
#X connect 20 0 25 0 empty;
#X connect 21 0 23 1 empty;
#X connect 22 0 26 1 empty;
#X connect 23 0 36 0 empty;
#X connect 25 0 26 0 empty;
#X connect 26 0 27 0 empty;
#X connect 27 0 28 0 empty;
#X connect 28 0 23 0 empty;
#X connect 29 0 33 0 empty;
#X connect 30 0 16 0 empty;
#X connect 31 0 32 0 empty;
#X connect 32 0 4 0 empty;
#X connect 32 1 4 1 empty;
#X connect 33 0 34 0 empty;
#X coords 0 0 1 1 675 250 1 744 137;
