#N canvas 827 239 527 327 12;
#X obj 919 259 inlet waveform;
#X obj 870 359 vsl 17 128 0.001 10 1 0 empty empty frequency -12 -9 0 10 #e4e4e4 #4d4d4d #4d4d4d 0 1;
#X floatatom 859 498 5 0 0 0 empty - frequency_\$0 12;
#X obj 438 313 phasor~;
#X obj 438 399 lop~;
#X obj 479 199 r frequency_\$0;
#X obj 439 599 outlet~ lfo;
#X obj 919 359 vradio 20 1 0 2 lfoWave_\$0 empty waveform -12 -8 0 10 #e4e4e4 #4d4d4d #4d4d4d 0;
#X text 950 358 triangle;
#X text 952 378 square;
#X obj 439 359 >=~ 0.5;
#X obj 339 199 inlet lfoFrequency;
#X msg 677 255 0;
#X msg 719 255 1;
#X obj 686 202 sel 0 1;
#X floatatom 679 299 5 0 0 0 empty - - 12;
#X obj 699 159 r lfoWave_\$0;
#X obj 672 345 - 1;
#X obj 673 388 abs;
#X floatatom 657 427 5 0 0 0 empty - - 12;
#X obj 440 459 *~;
#X obj 512 459 *~;
#X obj 499 259 inlet sync;
#X obj 445 518 -~ 0.5;
#X obj 451 557 *~ 2;
#X connect 0 0 7 0 empty;
#X connect 1 0 2 0 empty;
#X connect 3 0 10 0 empty;
#X connect 4 0 20 0 empty;
#X connect 5 0 3 0 empty;
#X connect 5 0 4 1 empty;
#X connect 10 0 4 0 empty;
#X connect 10 0 21 0 empty;
#X connect 11 0 3 0 empty;
#X connect 11 0 4 1 empty;
#X connect 12 0 15 0 empty;
#X connect 13 0 15 0 empty;
#X connect 14 0 12 0 empty;
#X connect 14 1 13 0 empty;
#X connect 15 0 17 0 empty;
#X connect 15 0 21 1 empty;
#X connect 16 0 14 0 empty;
#X connect 17 0 18 0 empty;
#X connect 18 0 19 0 empty;
#X connect 19 0 20 1 empty;
#X connect 20 0 23 0 empty;
#X connect 21 0 23 0 empty;
#X connect 22 0 3 1 empty;
#X connect 23 0 24 0 empty;
#X connect 24 0 6 0 empty;
#X coords 0 0 1 1 169 203 1 848 322;
