#N canvas 827 239 527 327 12;
#X obj 358 319 shWave101~;
#X obj 372 559 bob~;
#X obj 359 373 +~;
#X obj 453 617 *~;
#X obj 464 448 *~;
#X obj 512 419 *~;
#X obj 552 185 tri~ 0.21;
#X obj 552 239 *~ 0.35;
#X obj 453 159 inlet~ gate;
#X obj 359 159 inlet~ freq;
#X obj 672 359 inlet~ envDepth;
#X obj 453 485 modulation~;
#X obj 486 801 outlet~ synth;
#X obj 453 205 s~ gate_\$0;
#X obj 712 539 r~ gate_\$0;
#X obj 512 299 r~ gate_\$0;
#X obj 553 419 inlet~ cutoffMod;
#X obj 692 419 inlet~ cutoffModDepth;
#X obj 512 359 adsr~;
#X obj 712 599 adsr~;
#X obj 859 165 inlet filterEnv;
#X obj 932 419 inlet ampEnv;
#X obj 932 471 route attack decay sustain release;
#X obj 859 205 route attack decay sustain release;
#X floatatom 612 299 5 0 0 0 empty - - 12;
#X floatatom 672 299 5 0 0 0 empty - - 12;
#X floatatom 732 299 5 0 0 0 empty - - 12;
#X floatatom 792 301 5 0 0 0 empty - - 12;
#X floatatom 932 539 5 0 0 0 empty - - 12;
#X floatatom 992 539 5 0 0 0 empty - - 12;
#X floatatom 1052 539 5 0 0 0 empty - - 12;
#X floatatom 1112 541 5 0 0 0 empty - - 12;
#X obj 612 379 clip~ 0 5;
#X obj 478 519 inlet~ resonance;
#X obj 572 610 *~ 0.007874;
#X connect 0 0 2 0 empty;
#X connect 0 1 2 1 empty;
#X connect 1 0 3 0 empty;
#X connect 2 0 1 0 empty;
#X connect 3 0 12 0 empty;
#X connect 4 0 11 0 empty;
#X connect 5 0 4 1 empty;
#X connect 6 0 7 0 empty;
#X connect 7 0 0 1 empty;
#X connect 8 0 13 0 empty;
#X connect 9 0 0 0 empty;
#X connect 9 0 4 0 empty;
#X connect 10 0 32 0 empty;
#X connect 11 0 1 1 empty;
#X connect 14 0 19 0 empty;
#X connect 15 0 18 0 empty;
#X connect 16 0 11 1 empty;
#X connect 17 0 11 2 empty;
#X connect 18 0 5 0 empty;
#X connect 19 0 34 0 empty;
#X connect 20 0 23 0 empty;
#X connect 21 0 22 0 empty;
#X connect 22 0 28 0 empty;
#X connect 22 1 29 0 empty;
#X connect 22 2 30 0 empty;
#X connect 22 3 31 0 empty;
#X connect 23 0 24 0 empty;
#X connect 23 1 25 0 empty;
#X connect 23 2 26 0 empty;
#X connect 23 3 27 0 empty;
#X connect 24 0 18 1 empty;
#X connect 25 0 18 2 empty;
#X connect 26 0 18 3 empty;
#X connect 27 0 18 4 empty;
#X connect 28 0 19 1 empty;
#X connect 29 0 19 2 empty;
#X connect 30 0 19 3 empty;
#X connect 31 0 19 4 empty;
#X connect 32 0 5 1 empty;
#X connect 33 0 1 2 empty;
#X connect 34 0 3 1 empty;
