#N canvas 827 239 527 327 12;
#X obj 655 290 noise~;
#X obj 655 399 >~;
#X obj 739 339 float2sig~;
#X obj 655 339 +~ 1;
#X obj 655 439 -~ 1;
#X obj 655 639 svf~ 2000 0.6;
#X obj 655 739 outlet~ crackle;
#X obj 739 559 inlet cutoff;
#X obj 779 599 inlet Q;
#X obj 739 290 clip 0 0.05;
#X obj 739 239 inlet crackleAmount;
#X connect 0 0 3 0 empty;
#X connect 1 0 4 0 empty;
#X connect 2 0 1 1 empty;
#X connect 3 0 1 0 empty;
#X connect 4 0 5 0 empty;
#X connect 5 2 6 0 empty;
#X connect 7 0 5 1 empty;
#X connect 8 0 5 2 empty;
#X connect 9 0 2 0 empty;
#X connect 10 0 9 0 empty;
