#N canvas 827 239 527 327 12;
#X obj 379 259 *~;
#X obj 379 339 osc~;
#X obj 659 379 *~;
#X obj 659 339 noise~;
#X obj 899 339 *~;
#X obj 659 419 +~;
#X obj 899 299 brown~;
#X obj 379 499 outlet~;
#X obj 499 422 *~;
#X obj 279 219 inlet~ frequency;
#X obj 899 379 lop~ 12;
#X obj 459 219 receive~ fm;
#X obj 539 499 send~ fm;
#X text 659 78 This is a patch that's designed to sound like an old analog sine wave generator \, or a self-oscillating Moog ladder filter. It uses two noise sources---one is a white noise source \, while the other is a flicker noise source---which acts as an FM source along with feedback coming from the the sine oscillator. All of these elements combined create a reasonably convincing oscillator---it might not be up to Hainbach's test gear standards \, but it works for me., f 58;
#X obj 499 339 inlet~ feedbackAmount;
#X obj 719 339 inlet~ whiteNoiseAmount;
#X obj 959 299 inlet~ flickerNoiseAmount;
#X text 659 186 It's worth noting that I took the basic design from Simon Hutchison's excellent tutorial (see https://youtu.be/b8gw7EBEATE) \, though I've made my own (hopefully) tasteful changes.;
#X connect 0 0 1 0 empty;
#X connect 1 0 7 0 empty;
#X connect 1 0 8 0 empty;
#X connect 2 0 5 0 empty;
#X connect 3 0 2 0 empty;
#X connect 4 0 10 0 empty;
#X connect 5 0 12 0 empty;
#X connect 6 0 4 0 empty;
#X connect 8 0 12 0 empty;
#X connect 9 0 0 0 empty;
#X connect 9 0 1 0 empty;
#X connect 10 0 5 1 empty;
#X connect 11 0 0 1 empty;
#X connect 14 0 8 1 empty;
#X connect 15 0 2 1 empty;
#X connect 16 0 4 1 empty;
