#N canvas 827 239 527 327 12;
#X obj 614 388 hewlett~;
#X obj 494 374 modulation~;
#X floatatom 496 340 8 0 10000 2 frequency - - 12;
#X floatatom 572 340 5 0 10 2 FM\ strength - - 12;
#X obj 588 526 *~;
#X floatatom 637 340 5 0 1 2 feedback - - 8;
#X floatatom 678 340 6 0 2 2 white - - 12;
#X floatatom 732 340 5 0 2 2 flicker - - 8;
#X obj 496 293 inlet frequency;
#X obj 586 264 inlet fmStrength;
#X obj 621 293 inlet feedback;
#X obj 724 256 inlet whiteNoise;
#X obj 732 293 inlet flickerNoise;
#X obj 588 569 outlet~ output;
#X obj 462 265 decay2~;
#X floatatom 494 374 12 0 10000 2 attack - - 10;
#X floatatom 599 374 12 0 10000 2 decay - - 0;
#X obj 462 221 bng 25 250 50 0 empty empty empty 17 7 0 10 #e4e4e4 #4d4d4d #4d4d4d;
#X obj 462 166 inlet trigger;
#X text 630 467 Visually \, this abstraction is terrible \, but it does sound pretty cool.;
#X obj 859 293 inlet attack;
#X obj 959 293 inlet decay;
#X connect 0 0 4 1 empty;
#X connect 1 0 0 0 empty;
#X connect 2 0 1 0 empty;
#X connect 3 0 1 2 empty;
#X connect 4 0 13 0 empty;
#X connect 5 0 0 1 empty;
#X connect 6 0 0 2 empty;
#X connect 7 0 0 3 empty;
#X connect 8 0 2 0 empty;
#X connect 9 0 3 0 empty;
#X connect 10 0 5 0 empty;
#X connect 11 0 6 0 empty;
#X connect 12 0 7 0 empty;
#X connect 14 0 1 1 empty;
#X connect 14 0 4 0 empty;
#X connect 15 0 14 1 empty;
#X connect 16 0 14 2 empty;
#X connect 17 0 14 0 empty;
#X connect 18 0 17 0 empty;
#X connect 20 0 15 0 empty;
#X connect 21 0 16 0 empty;
#X coords 0 0 1 1 298 89 1 484 311;
