#N canvas 827 239 527 327 12;
#X obj 559 259 inlet~ left;
#X obj 647 259 inlet~ right;
#X obj 579 548 outlet~ left;
#X obj 692 550 outlet~ right;
#X obj 979 339 vu~;
#X obj 999 419 vu 20 120 empty empty -1 -8 0 10 #e4e4e4 #4d4d4d 1 0;
#X obj 1019 419 vu 20 120 empty empty -1 -8 0 10 #e4e4e4 #4d4d4d 1 0;
#X obj 1024 339 vu~;
#X obj 475 376 *~;
#X obj 539 376 *~;
#X obj 366 471 sig~;
#X obj 439 471 sig~;
#X connect 4 0 5 0 empty;
#X connect 4 1 5 1 empty;
#X connect 7 0 6 0 empty;
#X connect 7 1 6 1 empty;
