#N canvas 827 239 527 327 12;
#X obj 208 310 inlet~ input;
#X obj 544 548 outlet~ output;
#X obj 410 126 inlet~ cutoffFrequency;
#X obj 800 270 inlet~ Q;
#X obj 800 310 +~;
#X obj 969 420 vsl 17 128 20 20000 0 1 empty empty cutoff -4 -9 0 10 #e4e4e4 #4d4d4d #4d4d4d 847 1;
#X obj 1087 420 vsl 17 128 0 5 0 1 empty empty Q 4 -9 0 10 #e4e4e4 #4d4d4d #4d4d4d 0 1;
#X floatatom 959 559 5 0 0 0 empty - cutoff_\$0 12;
#X floatatom 1079 559 5 0 8 0 - - resonance_\$0 12;
#X obj 799 359 clip~ 0 8;
#X obj 1027 420 vsl 17 128 0 1000 0 1 empty empty cutoffMod -12 -9 0 10 #e4e4e4 #4d4d4d #4d4d4d 0 1;
#X floatatom 1019 559 5 0 0 0 empty - modAmount_\$0 12;
#X obj 557 230 inlet~ filterTracking;
#X obj 885 230 r resonance_\$0;
#X obj 551 398 bob~;
#X obj 598 126 r cutoff_\$0;
#X obj 595 187 float2sig~;
#X obj 874 260 float2sig~;
#N canvas 0 50 450 300 cutoffMod 1;
#X obj 656 540 outlet~;
#X obj 769 226 inlet~ modAmount;
#X obj 649 281 inlet~ cutoffMod;
#X obj 924 168 r modAmount_\$0;
#X obj 924 232 float2sig~;
#X obj 534 281 inlet~ cutoff;
#X obj 638 418 +~;
#X obj 675 379 *~;
#X obj 699 345 *~;
#X obj 793 312 +~;
#X connect 1 0 9 0 empty;
#X connect 2 0 8 0 empty;
#X connect 3 0 4 0 empty;
#X connect 4 0 9 1 empty;
#X connect 5 0 7 0 empty;
#X connect 5 0 6 0 empty;
#X connect 6 0 0 0 empty;
#X connect 7 0 6 1 empty;
#X connect 8 0 7 1 empty;
#X connect 9 0 8 1 empty;
#X restore 566 345 pd cutoffMod;
#X obj 734 126 inlet~ cutoffMod;
#X obj 782 168 inlet~ modAmount;
#X obj 566 302 +~;
#X connect 0 0 14 0 empty;
#X connect 2 0 21 0 empty;
#X connect 3 0 4 0 empty;
#X connect 4 0 9 0 empty;
#X connect 5 0 7 0 empty;
#X connect 6 0 8 0 empty;
#X connect 9 0 14 2 empty;
#X connect 10 0 11 0 empty;
#X connect 12 0 21 0 empty;
#X connect 13 0 17 0 empty;
#X connect 14 0 1 0 empty;
#X connect 15 0 16 0 empty;
#X connect 16 0 21 1 empty;
#X connect 17 0 4 1 empty;
#X connect 18 0 14 1 empty;
#X connect 19 0 18 1 empty;
#X connect 20 0 18 2 empty;
#X connect 21 0 18 0 empty;
#X coords 0 0 1 1 179 202 1 952 383;
