#N canvas 827 239 327 327 12;
#X obj 196 196 noise~;
#X obj 519 196 brown~;
#X obj 359 196 pink~;
#X obj 802 279 vsl 17 128 0 1 0 0 whiteLevel_\$0 empty white -3 -9 0 10 #e4e4e4 #4d4d4d #4d4d4d 0 1;
#X obj 862 279 vsl 17 128 0 1 0 0 pinkLevel_\$0 empty pink -1 -9 0 10 #e4e4e4 #4d4d4d #4d4d4d 0 1;
#X obj 922 279 vsl 17 128 0 1 0 0 brownLevel_\$0 empty brown 0 -9 0 10 #e4e4e4 #4d4d4d #4d4d4d 0 1;
#X obj 218 291 *~;
#X obj 359 291 *~;
#X obj 519 299 *~;
#X obj 359 379 outlet~ noise;
#X obj 240 259 r whiteLevel_\$0;
#X obj 399 239 r pinkLevel_\$0;
#X obj 579 239 r brownLevel_\$0;
#X connect 0 0 6 0 empty;
#X connect 1 0 8 0 empty;
#X connect 2 0 7 0 empty;
#X connect 6 0 9 0 empty;
#X connect 7 0 9 0 empty;
#X connect 8 0 9 0 empty;
#X connect 10 0 6 1 empty;
#X connect 11 0 7 1 empty;
#X connect 12 0 8 1 empty;
#X coords 0 0 1 1 175 175 1 785 250;
