#N canvas 827 239 450 167 12;
#X obj 581 403 bl.saw~;
#X obj 288 403 bl.square~;
#X obj 442 403 bl.square~;
#X obj 702 403 bl.tri~;
#X obj 475 198 /~ 2;
#X obj 359 239 impulse~;
#X obj 374 139 +~;
#X obj 930 341 vsl 17 128 0 1 0 0 empty empty square -6 -9 0 10 #e4e4e4 #4d4d4d #4d4d4d 0 1;
#X obj 982 341 vsl 17 128 0 1 0 0 empty empty saw -1 -9 0 10 #e4e4e4 #4d4d4d #4d4d4d 0 1;
#X obj 1102 341 vsl 17 128 0 1 0 0 empty empty sub 0 -9 0 10 #e4e4e4 #4d4d4d #4d4d4d 0 1;
#X obj 1042 341 vsl 17 128 0 1 0 0 empty empty triangle -6 -9 0 10 #e4e4e4 #4d4d4d #4d4d4d 0 1;
#X obj 290 466 *~;
#X obj 442 466 *~;
#X obj 582 466 *~;
#X obj 702 466 *~;
#X floatatom 1179 338 5 0 10000 2 frequency - freq_\$0 12;
#X obj 332 18 inlet~ frequency;
#X obj 1182 398 hsl 128 17 0.5 0.999 0 1 empty empty square\ pulsewidth -2 -8 0 10 #e4e4e4 #4d4d4d #4d4d4d 0 1;
#X obj 1182 438 hsl 128 17 0.5 0.999 0 1 empty empty sub\ pulsewidth -2 -8 0 10 #e4e4e4 #4d4d4d #4d4d4d 0 1;
#X obj 338 339 inlet~ squarePw;
#X obj 499 339 inlet~ suboscPw;
#X obj 179 579 outlet~ mix;
#X obj 279 519 outlet~ square;
#X obj 379 519 outlet~ saw;
#X obj 459 519 outlet~ triangle;
#X obj 559 519 outlet~ suboscillator;
#X obj 310 379 +~;
#X obj 459 379 +~;
#X floatatom 1259 339 5 -20 20 2 detune - detune_\$0 12;
#X obj 379 79 +~;
#X floatatom 919 479 5 0 1 0 empty - squareMix_\$0 12;
#X floatatom 979 479 5 0 1 0 empty - sawMix_\$0 12;
#X floatatom 1039 479 5 0 1 0 empty - triMix_\$0 12;
#X floatatom 1099 479 5 0 1 0 empty - subMix_\$0 12;
#X floatatom 1319 398 5 0 1 0 empty - pwSquare_\$0 12;
#X floatatom 1319 438 5 0 1 0 empty - pwSubosc_\$0 12;
#X obj 452 18 r freq_\$0;
#X obj 219 39 r detune_\$0;
#X obj 327 279 r pwSquare_\$0;
#X obj 322 430 r squareMix_\$0;
#X obj 482 430 r subMix_\$0;
#X obj 612 430 r sawMix_\$0;
#X obj 742 430 r triMix_\$0;
#X obj 499 259 r pwSubosc_\$0;
#X connect 0 0 13 0 empty;
#X connect 0 0 23 0 empty;
#X connect 1 0 11 0 empty;
#X connect 1 0 22 0 empty;
#X connect 2 0 12 0 empty;
#X connect 2 0 25 0 empty;
#X connect 3 0 14 0 empty;
#X connect 3 0 24 0 empty;
#X connect 4 0 2 0 32.................9....P5+++uO....j9+++mK....;
#X connect 4 0 5 0 32.................G....z3++++A....M9+++WA....;
#X connect 5 0 3 1 32.................9....jM...fO....YC....I....;
#X connect 5 0 0 1 32.................v....vH....L....LB....I....;
#X connect 5 0 1 2 32.................HA...v8+++OR....b++++CI....;
#X connect 5 0 2 2 32.................HA...TG....R....0A....I....;
#X connect 6 0 3 0 32.................W.....Q...vE....PD...3B....;
#X connect 6 0 0 0 32.................W.....L...vE.....C...3B....;
#X connect 6 0 1 0 32.................W....7+++++E....+++++6B....;
#X connect 6 0 4 0 empty;
#X connect 7 0 30 0 empty;
#X connect 8 0 31 0 empty;
#X connect 9 0 33 0 empty;
#X connect 10 0 32 0 empty;
#X connect 11 0 21 0 empty;
#X connect 12 0 21 0 empty;
#X connect 13 0 21 0 empty;
#X connect 14 0 21 0 empty;
#X connect 16 0 29 0 empty;
#X connect 17 0 34 0 empty;
#X connect 18 0 35 0 empty;
#X connect 19 0 26 1 empty;
#X connect 20 0 27 1 empty;
#X connect 26 0 1 1 empty;
#X connect 27 0 2 1 empty;
#X connect 29 0 6 1 empty;
#X connect 36 0 29 1 empty;
#X connect 37 0 6 0 empty;
#X connect 38 0 26 0 empty;
#X connect 39 0 11 1 empty;
#X connect 40 0 12 1 empty;
#X connect 41 0 13 1 empty;
#X connect 42 0 14 1 empty;
#X connect 43 0 27 0 empty;
#X coords 0 0 1 1 471 203 1 902 312;
