#N canvas 827 239 527 327 12;
#X obj 562 409 lop~;
#X obj 559 239 inlet~ signal;
#X obj 679 239 r portamento_\$0;
#X obj 999 259 tgl 21 1 bypassSignal_\$0 empty bypass -9 -11 0 12 #fcfcfc #4d4d4d #4d4d4d 1 1;
#X obj 1062 259 vsl 17 128 1 -0.1 0 0 empty empty portamento -14 -9 0 10 #e4e4e4 #4d4d4d #4d4d4d 0 1;
#X floatatom 1059 401 5 -0.1 1 0 empty - portamento_\$0 12;
#X obj 559 559 outlet~ output;
#X obj 679 339 exp;
#X obj 379 239 r bypassSignal_\$0;
#X obj 379 299 == 1;
#X obj 399 379 *~;
#X obj 564 339 *~;
#X obj 479 279 == 0;
#X obj 679 299 * 10;
#X obj 1059 199 inlet portamentoAmount;
#X connect 0 0 6 0 empty;
#X connect 1 0 11 1 empty;
#X connect 1 0 10 1 empty;
#X connect 2 0 13 0 empty;
#X connect 4 0 5 0 empty;
#X connect 7 0 0 1 empty;
#X connect 8 0 9 0 empty;
#X connect 8 0 12 0 empty;
#X connect 9 0 10 0 empty;
#X connect 10 0 6 0 empty;
#X connect 11 0 0 0 empty;
#X connect 12 0 11 0 empty;
#X connect 13 0 7 0 empty;
#X connect 14 0 4 0 empty;
#X coords 0 0 1 1 133 200 1 986 226;
