#N canvas 827 239 527 327 12;
#N canvas 0 50 450 250 (subpatch) 0;
#X array frequency_\$0 128 float 0;
#X coords 0 4 127 0.1 200 140 1;
#X restore 819 239 graph;
#N canvas 0 50 450 250 (subpatch) 0;
#X array amplitude_\$0 128 float 0;
#X coords 0 1 127 0 200 140 1;
#X restore 1059 239 graph;
#X obj 383 460 *~;
#X floatatom 819 393 8 0.001 4 1 tempo - tempo_\$0 12;
#X obj 398 159 phasor;
#X obj 398 279 tabread4 frequency_\$0;
#X obj 459 393 tabread4 amplitude_\$0;
#X obj 279 239 loadbang;
#X floatatom 279 311 5 0 0 0 empty - - 12;
#X msg 279 284 10;
#X obj 383 319 pow~;
#X floatatom 819 419 8 1 50 1 smoothing - smooth_\$0 12;
#X obj 940 393 tgl 21 0 play_\$0 empty play 24 10 0 12 #fcfcfc #000000 #000000 0 1;
#X obj 398 239 spigot;
#X obj 403 125 r tempo_\$0;
#X obj 433 199 r play_\$0;
#X obj 819 459 inlet tempo;
#X obj 900 460 inlet smoothing;
#X obj 1059 460 inlet play;
#X obj 522 419 r smooth_\$0;
#X obj 444 439 lop~;
#X obj 383 359 lop~;
#X obj 463 319 r smooth_\$0;
#X obj 376 399 hewlett~;
#X floatatom 119 319 5 0 0 0 empty - - 12;
#X floatatom 1019 393 8 0 1 1 feedback - feedback_\$0 12;
#X floatatom 1139 393 8 0 5 1 white - white_\$0 12;
#X floatatom 1139 420 8 0 5 1 flicker - flicker_\$0 12;
#X obj 598 262 r feedback_\$0;
#X obj 619 299 r white_\$0;
#X obj 645 359 r flicker_\$0;
#X text 1019 418 osc. parameters;
#X obj 519 125 inlet phaseReset;
#N canvas 0 50 450 250 (subpatch) 0;
#X array pan_\$0 128 float 0;
#X coords 0 1 127 -1 200 140 1;
#X restore 1299 239 graph;
#X obj 495 479 tabread4 pan_\$0;
#X obj 239 599 outlet~ leftOutput;
#X obj 470 599 outlet~ rightOutput;
#X obj 467 518 lop~;
#X obj 569 514 r smooth_\$0;
#X obj 339 559 pan2~;
#X obj 403 539 sig2float~;
#X connect 2 0 39 0 empty;
#X connect 4 0 13 0 empty;
#X connect 5 0 10 1 empty;
#X connect 6 0 20 0 empty;
#X connect 7 0 9 0 empty;
#X connect 8 0 10 0 empty;
#X connect 9 0 8 0 empty;
#X connect 10 0 21 0 empty;
#X connect 13 0 6 0 empty;
#X connect 13 0 5 0 empty;
#X connect 13 0 34 0 empty;
#X connect 14 0 4 0 empty;
#X connect 15 0 13 1 empty;
#X connect 16 0 3 0 empty;
#X connect 17 0 11 0 empty;
#X connect 18 0 12 0 empty;
#X connect 19 0 20 1 empty;
#X connect 20 0 2 1 empty;
#X connect 21 0 23 0 empty;
#X connect 22 0 21 1 empty;
#X connect 23 0 2 0 empty;
#X connect 28 0 23 1 empty;
#X connect 29 0 23 2 empty;
#X connect 30 0 23 3 empty;
#X connect 32 0 4 1 empty;
#X connect 34 0 37 0 empty;
#X connect 37 0 40 0 empty;
#X connect 38 0 37 1 empty;
#X connect 39 0 35 0 empty;
#X connect 39 1 36 0 empty;
#X connect 40 0 39 1 empty;
#X coords 0 0 1 1 700 250 1 810 201;
