#N canvas 827 239 39 327 12;
#X obj 639 272 bng 25 75 50 0 empty sendBang_\$0 empty 17 7 0 10 #e4e4e4 #4d4d4d #4d4d4d;
#X obj 539 238 tgl 21 0 empty empty toggle\ step 21 9 0 12 #fcfcfc #000000 #000000 0 1;
#X floatatom 539 279 5 0 256 1 note - - 12;
#X obj 399 139 inlet step;
#X floatatom 539 319 5 0 0 1 control\ param. - - 12;
#X obj 399 179 s sendBang_\$0;
#X obj 380 519 midi2freq;
#X obj 231 659 pack f f f;
#X obj 231 719 outlet toggleNoteParam;
#X obj 231 579 spigot;
#X obj 699 319 s bang_\$0;
#X obj 77 503 r bang_\$0;
#X obj 439 359 s param_\$0;
#X obj 439 319 s note_\$0;
#X obj 439 279 s toggle_\$0;
#X obj 246 519 r toggle_\$0;
#X obj 286 559 r toggle_\$0;
#X obj 389 559 r param_\$0;
#X obj 380 477 r note_\$0;
#X obj 539 179 inlet toggle;
#X obj 659 179 inlet note;
#X obj 782 179 inlet param;
#X obj 539 719 outlet note;
#X obj 422 719 outlet toggle;
#X obj 640 719 outlet param;
#X connect 0 0 10 0 empty;
#X connect 1 0 14 0 empty;
#X connect 2 0 13 0 empty;
#X connect 3 0 5 0 empty;
#X connect 4 0 12 0 empty;
#X connect 6 0 7 1 empty;
#X connect 6 0 22 0 empty;
#X connect 7 0 8 0 empty;
#X connect 9 0 7 0 empty;
#X connect 11 0 9 0 empty;
#X connect 15 0 9 1 empty;
#X connect 16 0 7 0 empty;
#X connect 16 0 23 0 empty;
#X connect 17 0 7 2 empty;
#X connect 17 0 24 0 empty;
#X connect 18 0 6 0 empty;
#X connect 19 0 1 0 empty;
#X connect 20 0 2 0 empty;
#X connect 21 0 4 0 empty;
#X coords 0 0 1 1 142 157 2 530 217;
