#N canvas 827 239 527 327 12;
#X obj 553 267 oscCluster~;
#X obj 1024 267 moogFilter~;
#X obj 320 267 basicLfo~;
#X obj 553 473 adsrEnv~;
#X obj 799 473 adsrEnv~;
#X obj 1050 241 hsl 128 17 -1 1 0 1 empty empty frequency\ tracking -2 -8 0 10 #e4e4e4 #4d4d4d #4d4d4d 0 1;
#X obj 1242 223 *~;
#X obj 320 94 inlet~ frequency;
#X obj 833 429 hsl 128 17 0 1 0 0 empty empty PWM -2 -8 0 10 #e4e4e4 #4d4d4d #4d4d4d 0 1;
#X obj 320 652 *~;
#X obj 513 318 vsl 17 128 -1 1 0 1 empty empty LFO\ mod -10 -9 0 10 #e4e4e4 #4d4d4d #4d4d4d 0 1;
#X obj 497 503 *~;
#X obj 1050 204 hsl 128 17 -1 1 0 1 empty empty LFO\ strength -2 -8 0 10 #e4e4e4 #4d4d4d #4d4d4d 0 1;
#X obj 339 201 +~;
#X obj 397 165 *~;
#X obj 953 44 *~;
#X obj 1050 165 hsl 128 17 -1 1 0 1 empty empty ENV\ strength -2 -8 0 10 #e4e4e4 #4d4d4d #4d4d4d 0 1;
#X obj 495 94 inlet~ gate;
#X obj 1006 45 *~;
#X obj 931 101 +~;
#X obj 1202 279 vca1~;
#X obj 1202 486 outlet~ output;
#X text 651 472 filter envelope;
#X text 873 472 VCA envelope;
#X text 1060 567 This is my first attempt at a full synthesizer in PD \, and \, as you can tell \, it looks a bit shit., f 40;
#X connect 0 0 1 0 empty;
#X connect 1 0 20 0 empty;
#X connect 2 0 9 0 empty;
#X connect 2 0 11 0 empty;
#X connect 2 0 18 0 empty;
#X connect 3 0 15 0 empty;
#X connect 4 0 20 1 empty;
#X connect 5 0 6 1 empty;
#X connect 6 0 1 2 empty;
#X connect 7 0 6 0 empty;
#X connect 7 0 14 0 empty;
#X connect 7 0 13 0 empty;
#X connect 8 0 9 1 empty;
#X connect 9 0 0 1 empty;
#X connect 10 0 11 1 empty;
#X connect 11 0 14 1 empty;
#X connect 12 0 18 1 empty;
#X connect 13 0 0 0 empty;
#X connect 14 0 13 1 empty;
#X connect 15 0 19 0 empty;
#X connect 16 0 15 1 empty;
#X connect 17 0 3 0 empty;
#X connect 17 0 4 0 empty;
#X connect 18 0 19 1 empty;
#X connect 19 0 1 3 empty;
#X connect 20 0 21 0 empty;
#X coords 0 0 1 1 1026 561 1 298 135;
