#N canvas 827 239 471 203 12;
#X obj 348 423 bl.square~;
#X obj 502 423 bl.square~;
#X obj 535 218 /~ 2;
#X obj 419 259 impulse~;
#X obj 279 139 inlet~ frequency;
#X obj 698 239 inlet~ squarePw;
#X obj 838 239 inlet~ suboscPw;
#X obj 348 519 outlet~ square;
#X obj 502 519 outlet~ suboscillator;
#X obj 698 319 +~ 0.5;
#X obj 838 319 +~ 0.5;
#X obj 698 279 clip~ -1 1;
#X obj 838 279 clip~ -1 1;
#X connect 0 0 7 0 empty;
#X connect 1 0 8 0 empty;
#X connect 2 0 1 0 empty;
#X connect 2 0 3 0 empty;
#X connect 3 0 0 2 empty;
#X connect 3 0 1 2 empty;
#X connect 4 0 2 0 empty;
#X connect 4 0 0 0 empty;
#X connect 5 0 11 0 empty;
#X connect 6 0 12 0 empty;
#X connect 9 0 0 1 empty;
#X connect 10 0 1 1 empty;
#X connect 11 0 9 0 empty;
#X connect 12 0 10 0 empty;
#X coords 0 0 1 1 471 203 0;
