#N canvas 827 239 527 327 12;
#X obj 378 438 tgl 21 0 empty empty toggle\ sequener 0 -11 0 12 #fcfcfc #000000 #000000 0 1;
#X obj 581 433 bng 25 250 50 0 empty empty reset\ sequencer 17 -3 0 10 #e4e4e4 #4d4d4d #4d4d4d;
#X obj 477 402 count;
#X msg 332 329 reset;
#X obj 285 227 loadbang;
#X floatatom 730 433 5 0 0 1 BPM - - 12;
#X obj 555 167 loadbang;
#X obj 452 449 sel 1;
#X obj 553 449 sel 2;
#X obj 649 453 sel 3;
#X obj 742 451 sel 4;
#X obj 822 449 sel 5;
#X obj 920 451 sel 6;
#X obj 1014 449 sel 7;
#X obj 232 334 loadbang;
#X obj 369 449 sel 0;
#X obj 369 482 bng 25 250 50 0 empty empty empty 17 7 0 10 #e4e4e4 #4d4d4d #4d4d4d;
#X obj 452 482 bng 25 250 50 0 empty empty empty 17 7 0 10 #e4e4e4 #4d4d4d #4d4d4d;
#X obj 553 482 bng 25 250 50 0 empty empty empty 17 7 0 10 #e4e4e4 #4d4d4d #4d4d4d;
#X obj 649 486 bng 25 250 50 0 empty empty empty 17 7 0 10 #e4e4e4 #4d4d4d #4d4d4d;
#X obj 742 484 bng 25 250 50 0 empty empty empty 17 7 0 10 #e4e4e4 #4d4d4d #4d4d4d;
#X obj 822 482 bng 25 250 50 0 empty empty empty 17 7 0 10 #e4e4e4 #4d4d4d #4d4d4d;
#X obj 920 484 bng 25 250 50 0 empty empty empty 17 7 0 10 #e4e4e4 #4d4d4d #4d4d4d;
#X obj 1014 482 bng 25 250 50 0 empty empty empty 17 7 0 10 #e4e4e4 #4d4d4d #4d4d4d;
#X obj 406 486 tgl 21 0 empty empty empty 0 -11 0 12 #fcfcfc #000000 #000000 0 1;
#X obj 499 482 tgl 21 0 empty empty empty 0 -11 0 12 #fcfcfc #000000 #000000 0 1;
#X obj 602 486 tgl 21 0 empty empty empty 0 -11 0 12 #fcfcfc #000000 #000000 0 1;
#X obj 697 490 tgl 21 0 empty empty empty 0 -11 0 12 #fcfcfc #000000 #000000 0 1;
#X obj 783 488 tgl 21 0 empty empty empty 0 -11 0 12 #fcfcfc #000000 #000000 0 1;
#X obj 874 486 tgl 21 0 empty empty empty 0 -11 0 12 #fcfcfc #000000 #000000 0 1;
#X obj 965 488 tgl 21 0 empty empty empty 0 -11 0 12 #fcfcfc #000000 #000000 0 1;
#X obj 1062 486 tgl 21 0 empty empty empty 0 -11 0 12 #fcfcfc #000000 #000000 0 1;
#X obj 369 541 spigot;
#X obj 508 541 spigot;
#X obj 637 541 spigot;
#X obj 774 541 spigot;
#X obj 920 541 spigot;
#X obj 1088 541 spigot;
#X obj 1253 541 spigot;
#X obj 1396 522 spigot;
#X obj 822 709 outlet bang;
#X obj 369 585 bng 25 250 50 0 empty empty empty 17 7 0 10 #e4e4e4 #4d4d4d #4d4d4d;
#X obj 508 585 bng 25 250 50 0 empty empty empty 17 7 0 10 #e4e4e4 #4d4d4d #4d4d4d;
#X obj 637 585 bng 25 250 50 0 empty empty empty 17 7 0 10 #e4e4e4 #4d4d4d #4d4d4d;
#X obj 774 585 bng 25 250 50 0 empty empty empty 17 7 0 10 #e4e4e4 #4d4d4d #4d4d4d;
#X obj 920 585 bng 25 250 50 0 empty empty empty 17 7 0 10 #e4e4e4 #4d4d4d #4d4d4d;
#X obj 1088 585 bng 25 250 50 0 empty empty empty 17 7 0 10 #e4e4e4 #4d4d4d #4d4d4d;
#X obj 1253 585 bng 25 250 50 0 empty empty empty 17 7 0 10 #e4e4e4 #4d4d4d #4d4d4d;
#X obj 1420 585 bng 25 250 50 0 empty empty empty 17 7 0 10 #e4e4e4 #4d4d4d #4d4d4d;
#X obj 623 269 inlet BPM;
#X obj 493 301 metronome 4/4;
#X msg 555 208 120;
#X obj 384 296 inlet toggle;
#X obj 595 353 * 2;
#X obj 818 260 inlet reset;
#X obj 1123 449 sel 8;
#X obj 1219 449 sel 9;
#X obj 1303 449 sel 10;
#X obj 1379 449 sel 11;
#X obj 1471 449 sel 12;
#X obj 1554 449 sel 13;
#X obj 1639 453 sel 14;
#X obj 1719 453 sel 15;
#X msg 338 377 max 15;
#X obj 1123 486 bng 25 250 50 0 empty empty empty 17 7 0 10 #e4e4e4 #4d4d4d #4d4d4d;
#X obj 1171 490 tgl 21 0 empty empty empty 0 -11 0 12 #fcfcfc #000000 #000000 0 1;
#X obj 1219 482 bng 25 250 50 0 empty empty empty 17 7 0 10 #e4e4e4 #4d4d4d #4d4d4d;
#X obj 1267 486 tgl 21 0 empty empty empty 0 -11 0 12 #fcfcfc #000000 #000000 0 1;
#X obj 1303 480 bng 25 250 50 0 empty empty empty 17 7 0 10 #e4e4e4 #4d4d4d #4d4d4d;
#X obj 1351 484 tgl 21 0 empty empty empty 0 -11 0 12 #fcfcfc #000000 #000000 0 1;
#X obj 1382 478 bng 25 250 50 0 empty empty empty 17 7 0 10 #e4e4e4 #4d4d4d #4d4d4d;
#X obj 1430 482 tgl 21 0 empty empty empty 0 -11 0 12 #fcfcfc #000000 #000000 0 1;
#X obj 1554 486 bng 25 250 50 0 empty empty empty 17 7 0 10 #e4e4e4 #4d4d4d #4d4d4d;
#X obj 1602 490 tgl 21 0 empty empty empty 0 -11 0 12 #fcfcfc #000000 #000000 0 1;
#X obj 1719 486 bng 25 250 50 0 empty empty empty 17 7 0 10 #e4e4e4 #4d4d4d #4d4d4d;
#X obj 1767 490 tgl 21 0 empty empty empty 0 -11 0 12 #fcfcfc #000000 #000000 0 1;
#X obj 1639 490 bng 25 250 50 0 empty empty empty 17 7 0 10 #e4e4e4 #4d4d4d #4d4d4d;
#X obj 1687 494 tgl 21 0 empty empty empty 0 -11 0 12 #fcfcfc #000000 #000000 0 1;
#X obj 1471 482 bng 25 250 50 0 empty empty empty 17 7 0 10 #e4e4e4 #4d4d4d #4d4d4d;
#X obj 1519 486 tgl 21 0 empty empty empty 0 -11 0 12 #fcfcfc #000000 #000000 0 1;
#X obj 1491 541 spigot;
#X obj 1577 544 spigot;
#X obj 1664 541 spigot;
#X obj 1732 539 spigot;
#X obj 1816 544 spigot;
#X obj 1884 542 spigot;
#X obj 1951 542 spigot;
#X obj 2024 545 spigot;
#X obj 1492 587 bng 25 250 50 0 empty empty empty 17 7 0 10 #e4e4e4 #4d4d4d #4d4d4d;
#X obj 1583 597 bng 25 250 50 0 empty empty empty 17 7 0 10 #e4e4e4 #4d4d4d #4d4d4d;
#X obj 1664 585 bng 25 250 50 0 empty empty empty 17 7 0 10 #e4e4e4 #4d4d4d #4d4d4d;
#X obj 1736 599 bng 25 250 50 0 empty empty empty 17 7 0 10 #e4e4e4 #4d4d4d #4d4d4d;
#X obj 1819 592 bng 25 250 50 0 empty empty empty 17 7 0 10 #e4e4e4 #4d4d4d #4d4d4d;
#X obj 1876 595 bng 25 250 50 0 empty empty empty 17 7 0 10 #e4e4e4 #4d4d4d #4d4d4d;
#X obj 1953 595 bng 25 250 50 0 empty empty empty 17 7 0 10 #e4e4e4 #4d4d4d #4d4d4d;
#X obj 2024 589 bng 25 250 50 0 empty empty empty 17 7 0 10 #e4e4e4 #4d4d4d #4d4d4d;
#X connect 0 0 50 0 empty;
#X connect 1 0 3 0 empty;
#X connect 2 0 15 0 empty;
#X connect 2 0 7 0 empty;
#X connect 2 0 8 0 empty;
#X connect 2 0 9 0 empty;
#X connect 2 0 10 0 empty;
#X connect 2 0 11 0 empty;
#X connect 2 0 12 0 empty;
#X connect 2 0 13 0 empty;
#X connect 2 0 55 0 empty;
#X connect 2 0 56 0 empty;
#X connect 2 0 57 0 empty;
#X connect 2 0 58 0 empty;
#X connect 2 0 59 0 empty;
#X connect 2 0 60 0 empty;
#X connect 2 0 61 0 empty;
#X connect 2 0 62 0 empty;
#X connect 3 0 2 0 empty;
#X connect 4 0 1 0 empty;
#X connect 5 0 53 0 empty;
#X connect 6 0 51 0 empty;
#X connect 7 0 17 0 empty;
#X connect 8 0 18 0 empty;
#X connect 9 0 19 0 empty;
#X connect 10 0 20 0 empty;
#X connect 11 0 21 0 empty;
#X connect 12 0 22 0 empty;
#X connect 13 0 23 0 empty;
#X connect 14 0 63 0 empty;
#X connect 15 0 16 0 empty;
#X connect 16 0 32 0 empty;
#X connect 17 0 33 0 empty;
#X connect 18 0 34 0 empty;
#X connect 19 0 35 0 empty;
#X connect 20 0 36 0 empty;
#X connect 21 0 37 0 empty;
#X connect 22 0 38 0 empty;
#X connect 23 0 39 0 empty;
#X connect 24 0 32 1 empty;
#X connect 25 0 33 1 empty;
#X connect 26 0 34 1 empty;
#X connect 27 0 35 1 empty;
#X connect 28 0 36 1 empty;
#X connect 29 0 37 1 empty;
#X connect 30 0 38 1 empty;
#X connect 31 0 39 1 empty;
#X connect 32 0 41 0 empty;
#X connect 33 0 42 0 empty;
#X connect 34 0 43 0 empty;
#X connect 35 0 44 0 empty;
#X connect 36 0 45 0 empty;
#X connect 37 0 46 0 empty;
#X connect 38 0 47 0 empty;
#X connect 39 0 48 0 empty;
#X connect 41 0 40 0 empty;
#X connect 42 0 40 0 empty;
#X connect 43 0 40 0 empty;
#X connect 44 0 40 0 empty;
#X connect 45 0 40 0 empty;
#X connect 46 0 40 0 empty;
#X connect 47 0 40 0 empty;
#X connect 48 0 40 0 empty;
#X connect 49 0 5 0 empty;
#X connect 50 0 2 0 empty;
#X connect 51 0 5 0 empty;
#X connect 52 0 0 0 empty;
#X connect 53 0 50 1 empty;
#X connect 54 0 1 0 empty;
#X connect 55 0 64 0 empty;
#X connect 56 0 66 0 empty;
#X connect 57 0 68 0 empty;
#X connect 58 0 70 0 empty;
#X connect 59 0 78 0 empty;
#X connect 60 0 72 0 empty;
#X connect 61 0 76 0 empty;
#X connect 62 0 74 0 empty;
#X connect 63 0 2 0 empty;
#X connect 64 0 80 0 empty;
#X connect 65 0 80 1 empty;
#X connect 66 0 81 0 empty;
#X connect 67 0 81 1 empty;
#X connect 68 0 82 0 empty;
#X connect 69 0 82 1 empty;
#X connect 70 0 83 0 empty;
#X connect 71 0 83 1 empty;
#X connect 72 0 85 0 empty;
#X connect 73 0 85 1 empty;
#X connect 74 0 87 0 empty;
#X connect 75 0 87 1 empty;
#X connect 76 0 86 0 empty;
#X connect 77 0 86 1 empty;
#X connect 78 0 84 0 empty;
#X connect 79 0 84 1 empty;
#X connect 80 0 88 0 empty;
#X connect 81 0 89 0 empty;
#X connect 82 0 90 0 empty;
#X connect 83 0 91 0 empty;
#X connect 84 0 92 0 empty;
#X connect 85 0 93 0 empty;
#X connect 86 0 94 0 empty;
#X connect 87 0 95 0 empty;
#X connect 88 0 40 0 empty;
#X connect 89 0 40 0 empty;
#X connect 90 0 40 0 empty;
#X connect 91 0 40 0 empty;
#X connect 92 0 40 0 empty;
#X connect 93 0 40 0 empty;
#X connect 94 0 40 0 empty;
#X connect 95 0 40 0 empty;
#X coords 0 0 1 1 1446 137 1 354 399;
