#N canvas 827 239 527 327 12;
#X obj 199 559 sequencerStep;
#A saved 1 37 0;
#X obj 359 559 sequencerStep;
#A saved 1 37 0;
#X obj 519 559 sequencerStep;
#A saved 1 37 0;
#X obj 679 559 sequencerStep;
#A saved 1 37 0;
#X obj 839 559 sequencerStep;
#A saved 1 37 0;
#X obj 999 559 sequencerStep;
#A saved 1 37 0;
#X obj 1159 559 sequencerStep;
#A saved 1 37 0;
#X obj 1319 559 sequencerStep;
#A saved 1 37 0;
#X obj 199 739 sequencerStep;
#A saved 1 37 0;
#X obj 359 739 sequencerStep;
#A saved 1 37 0;
#X obj 519 739 sequencerStep;
#A saved 1 37 0;
#X obj 679 739 sequencerStep;
#A saved 1 37 0;
#X obj 839 739 sequencerStep;
#A saved 1 37 0;
#X obj 999 739 sequencerStep;
#A saved 1 37 0;
#X obj 1159 739 sequencerStep;
#A saved 1 37 0;
#X obj 1319 739 sequencerStep;
#A saved 1 37 0;
#X obj 199 499 sel 0 1 2 3 4 5 6 7 8 9 10 11 12 13 14 15;
#X obj 199 919 tgl 21 0 toggleSeq_\$1 toggleSeq_\$0 toggle\ sequener 24 9 0 12 #fcfcfc #000000 #000000 0 1;
#X obj 321 919 bng 25 250 50 0 resetSequencer_\$1 resetSequencer_\$0 reset\ sequencer 28 12 0 10 #e4e4e4 #4d4d4d #4d4d4d;
#X obj 199 419 count;
#X msg 321 379 reset;
#X obj 1042 323 loadbang;
#X floatatom 437 919 5 0 1000 1 BPM sendBpm_\$0 sendBpm_\$1 12;
#X obj 199 195 loadbang;
#X obj 831 259 inlet BPM;
#X obj 299 239 metronome 4/4;
#X obj 649 339 inlet toggle;
#X obj 439 195 * 2;
#X obj 1113 323 inlet reset;
#X msg 199 239 max 15;
#X obj 649 406 s toggleSeq_\$0;
#X obj 299 195 r toggleSeq_\$1;
#X text 321 558 1;
#X text 484 558 2;
#X text 641 558 3;
#X text 801 558 4;
#X text 961 558 5;
#X text 1121 558 6;
#X text 1281 558 7;
#X text 1441 558 8;
#X text 321 738 9;
#X text 476 738 10;
#X text 638 738 11;
#X text 796 738 12;
#X text 956 738 13;
#X text 1116 738 14;
#X text 1276 738 15;
#X text 1436 738 16;
#X obj 439 155 r sendBpm_\$1;
#X obj 1048 379 s resetSequencer_\$0;
#X obj 321 339 r resetSequencer_\$1;
#X obj 419 239 inlet extClock;
#X obj 325 279 s clockBang_\$0;
#X obj 199 1199 outlet bangNoteOut;
#X obj 801 179 savestate;
#X obj 941 219 f;
#X obj 941 279 pack;
#X obj 800 299 s sendBpm_\$0;
#X obj 961 159 r sendBpm_\$1;
#X obj 800 219 unpack;
#X connect 0 0 53 0 empty;
#X connect 1 0 53 0 empty;
#X connect 2 0 53 0 empty;
#X connect 3 0 53 0 empty;
#X connect 4 0 53 0 empty;
#X connect 5 0 53 0 empty;
#X connect 6 0 53 0 empty;
#X connect 7 0 53 0 empty;
#X connect 8 0 53 0 empty;
#X connect 9 0 53 0 empty;
#X connect 10 0 53 0 empty;
#X connect 11 0 53 0 empty;
#X connect 12 0 53 0 empty;
#X connect 13 0 53 0 empty;
#X connect 14 0 53 0 empty;
#X connect 15 0 53 0 empty;
#X connect 16 0 0 0 empty;
#X connect 16 1 1 0 empty;
#X connect 16 2 2 0 empty;
#X connect 16 3 3 0 empty;
#X connect 16 4 4 0 empty;
#X connect 16 5 5 0 empty;
#X connect 16 6 6 0 empty;
#X connect 16 7 7 0 empty;
#X connect 16 8 8 0 empty;
#X connect 16 9 9 0 empty;
#X connect 16 10 10 0 empty;
#X connect 16 11 11 0 empty;
#X connect 16 12 12 0 empty;
#X connect 16 13 13 0 empty;
#X connect 16 14 14 0 empty;
#X connect 16 15 15 0 empty;
#X connect 19 0 16 0 empty;
#X connect 20 0 19 0 empty;
#X connect 21 0 49 0 empty;
#X connect 23 0 29 0 empty;
#X connect 24 0 57 0 empty;
#X connect 25 0 19 0 empty;
#X connect 25 1 52 0 empty;
#X connect 26 0 30 0 empty;
#X connect 27 0 25 1 empty;
#X connect 28 0 49 0 empty;
#X connect 29 0 19 0 empty;
#X connect 31 0 25 0 empty;
#X connect 48 0 27 0 empty;
#X connect 50 0 20 0 empty;
#X connect 51 0 19 0 empty;
#X connect 54 0 59 0 empty;
#X connect 54 1 55 0 empty;
#X connect 55 0 56 0 empty;
#X connect 56 0 54 0 empty;
#X connect 58 0 55 1 empty;
#X connect 59 0 57 0 empty;
#X coords 0 0 1 1 1284 431 1 190 534;
