#N canvas 827 239 527 327 12;
#X obj 935 144 r loopPlay_\$0;
#X obj 1087 262 bng 25 250 50 0 empty empty load\ soundfile 17 -8 0 10 #e4e4e4 #4d4d4d #4d4d4d;
#X obj 935 199 bng 25 250 50 0 empty empty play 17 -8 0 10 #0ce400 #000000 #4d4d4d;
#X obj 1007 199 bng 25 250 50 0 empty empty stop 17 -8 0 10 #e41e00 #4d4d4d #4d4d4d;
#X obj 499 259 openpanel;
#X obj 607 299 makefilename %s;
#X obj 607 341 print Directory;
#X obj 527 426 symbol;
#X obj 499 519 readsf~;
#X obj 215 306 t b b;
#X obj 287 306 t b b;
#X msg 215 339 1;
#X msg 287 339 0;
#X msg 499 479 open \$1;
#X obj 499 679 *~, f 5;
#X obj 938 262 hsl 128 17 0 1 0 0 empty empty volume -2 -8 0 10 #e4e4e4 #4d4d4d #4d4d4d 0 1;
#X obj 533 559 spigot;
#X obj 1087 199 tgl 25 0 empty empty loop 17 -8 0 10 #e4e4e4 #4d4d4d #4d4d4d 0 1;
#X obj 533 599 s loopPlay_\$0;
#X obj 1135 239 s play_\$0;
#X obj 1207 239 s stop_\$0;
#X obj 1287 239 s loop_\$0;
#X obj 935 308 s volume_\$0;
#X obj 1087 314 s loadFile_\$0;
#X obj 499 199 r loadFile_\$0;
#X obj 215 259 r play_\$0;
#X obj 287 259 r stop_\$0;
#X obj 499 719 outlet~;
#X obj 759 130 inlet play;
#X obj 1046 144 inlet stop;
#X obj 1137 144 inlet loop;
#X text 728 478 This was pilfered from <https://www.youtube.com/watch?v=jAc3gmz2gYw>. Go watch their tutorials---they're quite good.;
#X obj 611 508 r loop_\$0;
#X obj 559 639 r volume_\$0;
#X connect 0 0 2 0 empty;
#X connect 1 0 23 0 empty;
#X connect 2 0 19 0 empty;
#X connect 3 0 20 0 empty;
#X connect 4 0 13 0 empty;
#X connect 4 0 7 0 empty;
#X connect 4 0 5 0 empty;
#X connect 5 0 6 0 empty;
#X connect 7 0 13 0 empty;
#X connect 8 0 14 0 empty;
#X connect 8 1 16 0 empty;
#X connect 9 0 11 0 empty;
#X connect 9 1 7 0 empty;
#X connect 10 0 12 0 empty;
#X connect 10 1 7 0 empty;
#X connect 11 0 8 0 empty;
#X connect 12 0 8 0 empty;
#X connect 13 0 8 0 empty;
#X connect 14 0 27 0 empty;
#X connect 15 0 22 0 empty;
#X connect 16 0 18 0 empty;
#X connect 17 0 21 0 empty;
#X connect 24 0 4 0 empty;
#X connect 25 0 9 0 empty;
#X connect 26 0 10 0 empty;
#X connect 28 0 2 0 empty;
#X connect 29 0 3 0 empty;
#X connect 30 0 17 0 empty;
#X connect 32 0 16 1 empty;
#X connect 33 0 14 1 empty;
#X coords 0 0 1 1 250 150 1 922 152;
