#N canvas 827 239 527 327 12;
#N canvas 733 172 450 300 sawsLeft 1;
#X obj 179 546 bl.saw~;
#X obj 399 546 bl.saw~;
#X obj 579 546 bl.saw~;
#X obj 797 546 bl.saw~;
#X obj 979 546 bl.saw~;
#X obj 296 746 outlet~;
#X obj 179 471 fexpr~ $x1[0] + $x2[0] * $x1[0];
#X obj 379 471 fexpr~ $x1[0] + $x2[0] * $x1[0];
#X obj 579 471 fexpr~ $x1[0] + $x2[0] * $x1[0];
#X obj 779 471 fexpr~ $x1[0] + $x2[0] * $x1[0];
#X obj 979 471 fexpr~ $x1[0] + $x2[0] * $x1[0];
#X obj 254 264 inlet~ frequency;
#X obj 597 273 inlet~ detune;
#X obj 319 419 *~ 0.1;
#X obj 503 419 *~ 0.12;
#X obj 679 415 *~ 0.14;
#X obj 899 415 *~ 0.16;
#X obj 1079 419 *~ 0.18;
#X obj 719 159 loadbang;
#X obj 719 221 rand.f 0 1;
#X obj 808 221 rand.f 0 1;
#X obj 888 221 rand.f 0 1;
#X obj 968 221 rand.f 0 1;
#X obj 1059 221 rand.f 0 1;
#X connect 0 0 5 0 empty;
#X connect 1 0 5 0 empty;
#X connect 2 0 5 0 empty;
#X connect 3 0 5 0 empty;
#X connect 4 0 5 0 empty;
#X connect 6 0 0 0 empty;
#X connect 7 0 1 0 empty;
#X connect 8 0 2 0 empty;
#X connect 9 0 3 0 empty;
#X connect 10 0 4 0 empty;
#X connect 11 0 6 0 empty;
#X connect 11 0 7 0 empty;
#X connect 11 0 8 0 empty;
#X connect 11 0 9 0 empty;
#X connect 11 0 10 0 empty;
#X connect 12 0 13 0 empty;
#X connect 12 0 14 0 empty;
#X connect 12 0 15 0 empty;
#X connect 12 0 16 0 empty;
#X connect 12 0 17 0 empty;
#X connect 13 0 6 1 empty;
#X connect 14 0 7 1 empty;
#X connect 15 0 8 1 empty;
#X connect 16 0 9 1 empty;
#X connect 17 0 10 1 empty;
#X connect 18 0 19 0 empty;
#X connect 18 0 20 0 empty;
#X connect 18 0 21 0 empty;
#X connect 18 0 22 0 empty;
#X connect 18 0 23 0 empty;
#X connect 19 0 0 2 empty;
#X connect 20 0 1 2 empty;
#X connect 21 0 2 2 empty;
#X connect 22 0 3 2 empty;
#X connect 23 0 4 2 empty;
#X restore 579 415 pd sawsLeft;
#N canvas 733 172 450 300 sawsRight 1;
#X obj 220 546 bl.saw~;
#X obj 399 546 bl.saw~;
#X obj 579 546 bl.saw~;
#X obj 757 546 bl.saw~;
#X obj 939 546 bl.saw~;
#X obj 296 746 outlet~;
#X obj 220 479 fexpr~ $x1[0] + $x2[0] * $x1[0];
#X obj 431 479 fexpr~ $x1[0] + $x2[0] * $x1[0];
#X obj 631 479 fexpr~ $x1[0] + $x2[0] * $x1[0];
#X obj 831 479 fexpr~ $x1[0] + $x2[0] * $x1[0];
#X obj 1031 479 fexpr~ $x1[0] + $x2[0] * $x1[0];
#X obj 254 264 inlet~ frequency;
#X obj 597 273 inlet~ detune;
#X obj 319 419 *~ 0.15;
#X obj 503 419 *~ 0.18;
#X obj 679 415 *~ 0.21;
#X obj 859 415 *~ 0.24;
#X obj 1039 419 *~ 0.27;
#X obj 868 135 loadbang;
#X obj 868 197 rand.f 0 1;
#X obj 957 197 rand.f 0 1;
#X obj 1037 197 rand.f 0 1;
#X obj 1117 197 rand.f 0 1;
#X obj 1208 197 rand.f 0 1;
#X connect 0 0 5 0 empty;
#X connect 1 0 5 0 empty;
#X connect 2 0 5 0 empty;
#X connect 3 0 5 0 empty;
#X connect 4 0 5 0 empty;
#X connect 6 0 0 0 empty;
#X connect 7 0 1 0 empty;
#X connect 8 0 2 0 empty;
#X connect 9 0 3 0 empty;
#X connect 10 0 4 0 empty;
#X connect 11 0 6 0 empty;
#X connect 11 0 7 0 empty;
#X connect 11 0 8 0 empty;
#X connect 11 0 9 0 empty;
#X connect 11 0 10 0 empty;
#X connect 12 0 13 0 empty;
#X connect 12 0 14 0 empty;
#X connect 12 0 15 0 empty;
#X connect 12 0 16 0 empty;
#X connect 12 0 17 0 empty;
#X connect 13 0 6 1 empty;
#X connect 14 0 7 1 empty;
#X connect 15 0 8 1 empty;
#X connect 16 0 9 1 empty;
#X connect 17 0 10 1 empty;
#X connect 18 0 19 0 empty;
#X connect 18 0 20 0 empty;
#X connect 18 0 21 0 empty;
#X connect 18 0 22 0 empty;
#X connect 18 0 23 0 empty;
#X connect 19 0 0 2 empty;
#X connect 20 0 1 2 empty;
#X connect 21 0 2 2 empty;
#X connect 22 0 3 2 empty;
#X connect 23 0 4 2 empty;
#X restore 739 415 pd sawsRight;
#X obj 653 519 +~;
#X obj 579 599 *~;
#X obj 739 599 *~;
#X obj 653 599 *~;
#X obj 579 699 outlet~ left;
#X obj 739 699 outlet~ right;
#X obj 579 659 +~;
#X obj 739 659 +~;
#X obj 579 179 inlet~ frequency;
#X obj 739 179 inlet~ detune;
#X obj 779 519 fexpr~ 1 - $x1[0];
#X obj 919 179 inlet~ separation;
#X obj 919 299 s~ separation_\$0;
#X obj 919 239 clip~ 0 1;
#X obj 779 463 r~ separation_\$0;
#X obj 479 519 r~ separation_\$0;
#X connect 0 0 2 0 empty;
#X connect 0 0 3 0 empty;
#X connect 1 0 2 1 empty;
#X connect 1 0 4 0 empty;
#X connect 2 0 5 0 empty;
#X connect 3 0 8 0 empty;
#X connect 4 0 9 0 empty;
#X connect 5 0 8 1 empty;
#X connect 5 0 9 1 empty;
#X connect 8 0 6 0 empty;
#X connect 9 0 7 0 empty;
#X connect 10 0 0 0 empty;
#X connect 10 0 1 0 empty;
#X connect 11 0 0 1 empty;
#X connect 11 0 1 1 empty;
#X connect 12 0 5 1 empty;
#X connect 13 0 15 0 empty;
#X connect 15 0 14 0 empty;
#X connect 16 0 12 0 empty;
#X connect 17 0 3 1 empty;
#X connect 17 0 4 1 empty;
