#N canvas 827 239 527 327 12;
#X obj 219 99 soundFilePlayer~;
#X obj 219 355 s~ audio_\$0;
#X obj 319 859 out~;
#N canvas 733 172 450 300 noise 1;
#X restore 319 439 pd noise;
#X floatatom 960 313 5 0 1 1 white\ noise - - 12;
#X floatatom 960 359 5 0 1 1 low-frequency\ noise - - 12;
#X obj 1119 359 s~ whiteNoise_\$0;
#X obj 1119 419 s~ lfNoise_\$0;
#X obj 319 819 clip~ -0.8 0.8;
#N canvas 733 172 450 300 delayStructure 1;
#X obj 799 599 lop~ 8000;
#X obj 799 639 lop~ 8000;
#X obj 799 679 lop~ 8000;
#X obj 799 439 vd~ tape_\$0;
#X obj 799 559 hip~ 35;
#X obj 799 399 inlet~ delayTime;
#X obj 503 699 inlet~ audioIn;
#X obj 919 439 r~ noiseSource_\$0;
#X obj 503 879 delwrite~ tape_\$0 10000;
#X obj 1139 519 inlet~ feedbackAmount;
#X obj 1139 559 s~ feedbackAmt_\$0;
#X obj 799 799 outlet~ audio;
#X obj 119 359 noise~;
#X obj 319 359 noise~;
#X obj 319 391 lop~ 12;
#X obj 119 439 *~;
#X obj 319 439 *~;
#X obj 119 499 +~;
#X obj 179 359 r~ whiteNoise_\$0;
#X obj 399 391 r~ lfNoise_\$0;
#X obj 119 559 s~ noiseSource_\$0;
#X obj 503 839 +~;
#X obj 539 806 *~;
#X obj 539 739 r~ feedbackAmt_\$0;
#X obj 799 726 fexpr~ 0.8 * tanh(1.2 * $x1[0]);
#X obj 799 499 clip~ -0.6 0.6;
#X obj 419 759 clip~ -0.8 0.8;
#X connect 0 0 1 0 empty;
#X connect 1 0 2 0 empty;
#X connect 2 0 24 0 empty;
#X connect 3 0 25 0 empty;
#X connect 4 0 0 0 empty;
#X connect 5 0 3 0 empty;
#X connect 6 0 26 0 empty;
#X connect 7 0 25 0 empty;
#X connect 9 0 10 0 empty;
#X connect 12 0 15 0 empty;
#X connect 13 0 14 0 empty;
#X connect 14 0 16 0 empty;
#X connect 15 0 17 0 empty;
#X connect 16 0 17 1 empty;
#X connect 17 0 20 0 empty;
#X connect 18 0 15 1 empty;
#X connect 19 0 16 1 empty;
#X connect 21 0 8 0 empty;
#X connect 22 0 21 1 empty;
#X connect 23 0 22 0 empty;
#X connect 24 0 11 0 empty;
#X connect 24 0 22 1 empty;
#X connect 25 0 4 0 empty;
#X connect 26 0 21 0 empty;
#X restore 429 619 pd delayStructure;
#X obj 429 504 r~ dryGain_\$0;
#X obj 1122 229 s~ dryGain_\$0;
#X obj 1119 271 s~ wetGain_\$0;
#X floatatom 960 199 5 0 1 1 dry\ gain - - 12;
#X floatatom 960 231 5 0 1 1 wet\ gain - - 12;
#X obj 319 504 r~ audio_\$0;
#X obj 319 559 *~;
#X obj 319 779 +~;
#X obj 429 659 *~;
#X obj 559 619 r~ wetGain_\$0;
#X floatatom 959 273 5 -0.99 0.99 1 feedback - - 12;
#X obj 1119 313 s~ feedback_\$0;
#X floatatom 476 551 14 0 0 0 empty - - 24;
#X floatatom 702 566 5 -1 1 0 empty - - 12;
#X obj 219 311 *~ 2;
#X connect 0 0 24 0 empty;
#X connect 4 0 6 0 empty;
#X connect 5 0 7 0 empty;
#X connect 8 0 2 0 empty;
#X connect 9 0 18 0 empty;
#X connect 10 0 16 1 empty;
#X connect 13 0 11 0 empty;
#X connect 14 0 12 0 empty;
#X connect 15 0 16 0 empty;
#X connect 15 0 9 0 empty;
#X connect 16 0 17 0 empty;
#X connect 17 0 8 0 empty;
#X connect 18 0 17 1 empty;
#X connect 19 0 18 1 empty;
#X connect 20 0 21 0 empty;
#X connect 22 0 9 1 empty;
#X connect 23 0 9 2 empty;
#X connect 24 0 1 0 empty;
