#N canvas 827 239 527 327 12;
#X obj 535 337 inlet~ signal;
#X obj 539 519 tanh~;
#X obj 539 459 *~;
#X obj 639 339 inlet~ gain;
#X obj 639 379 +~;
#X obj 536 579 outlet~;
#X obj 942 439 vsl 17 128 0 127 0 0 gainSet_\$0 empty initial\ gain -12 -9 0 10 #e4e4e4 #4d4d4d #4d4d4d 0 1;
#X obj 599 419 clip~ -1 1;
#X obj 719 339 r gainSet_\$0;
#X connect 0 0 2 0 empty;
#X connect 1 0 5 0 empty;
#X connect 2 0 1 0 empty;
#X connect 3 0 4 0 empty;
#X connect 4 0 7 0 empty;
#X connect 7 0 2 1 empty;
#X connect 8 0 4 1 empty;
#X coords 0 0 1 1 83 178 1 917 410;
